<svg xmlns="http://www.w3.org/2000/svg" width="180" height="32" viewBox="0 0 180 32" fill="none">
    <path d="M14.9439 2.92705C15.2433 2.00574 16.5467 2.00574 16.8461 2.92705L19.2155 10.2193C19.3493 10.6313 19.7333 10.9103 20.1665 10.9103H27.834C28.8028 10.9103 29.2055 12.1499 28.4218 12.7193L22.2187 17.2262C21.8682 17.4808 21.7215 17.9322 21.8554 18.3442L24.2248 25.6365C24.5241 26.5578 23.4697 27.3239 22.6859 26.7545L16.4828 22.2476C16.1323 21.993 15.6577 21.993 15.3072 22.2476L9.10404 26.7545C8.32033 27.3239 7.26585 26.5578 7.5652 25.6365L9.9346 18.3442C10.0685 17.9322 9.92182 17.4808 9.57133 17.2262L3.36816 12.7193C2.58445 12.1499 2.98722 10.9103 3.95595 10.9103H11.6235C12.0567 10.9103 12.4407 10.6313 12.5745 10.2193L14.9439 2.92705Z" 
         fill="#FFE500"/>
    <path d="M51.7857 2.92705C52.0851 2.00574 53.3885 2.00574 53.6879 2.92705L56.0572 10.2193C56.1911 10.6313 56.5751 10.9103 57.0083 10.9103H64.6758C65.6446 10.9103 66.0473 12.1499 65.2636 12.7193L59.0605 17.2262C58.71 17.4808 58.5633 17.9322 58.6972 18.3442L61.0666 25.6365C61.3659 26.5578 60.3115 27.3239 59.5277 26.7545L53.3246 22.2476C52.9741 21.993 52.4995 21.993 52.149 22.2476L45.9458 26.7545C45.1621 27.3239 44.1076 26.5578 44.407 25.6365L46.7764 18.3442C46.9103 17.9322 46.7636 17.4808 46.4131 17.2262L40.21 12.7193C39.4262 12.1499 39.829 10.9103 40.7977 10.9103H48.4653C48.8985 10.9103 49.2825 10.6313 49.4163 10.2193L51.7857 2.92705Z" 
         fill="#FFE500"/>
    <path d="M88.6285 2.92705C88.9279 2.00574 90.2313 2.00574 90.5306 2.92705L92.9 10.2193C93.0339 10.6313 93.4179 10.9103 93.8511 10.9103H101.519C102.487 10.9103 102.89 12.1499 102.106 12.7193L95.9032 17.2262C95.5527 17.4808 95.4061 17.9322 95.54 18.3442L97.9094 25.6365C98.2087 26.5578 97.1542 27.3239 96.3705 26.7545L90.1674 22.2476C89.8169 21.993 89.3423 21.993 88.9918 22.2476L82.7886 26.7545C82.0049 27.3239 80.9504 26.5578 81.2498 25.6365L83.6192 18.3442C83.753 17.9322 83.6064 17.4808 83.2559 17.2262L77.0527 12.7193C76.269 12.1499 76.6718 10.9103 77.6405 10.9103H85.3081C85.7413 10.9103 86.1252 10.6313 86.2591 10.2193L88.6285 2.92705Z" 
         fill="#FFE500"/>
    <path d="M125.47 2.92705C125.77 2.00574 127.073 2.00574 127.372 2.92705L129.742 10.2193C129.876 10.6313 130.26 10.9103 130.693 10.9103H138.36C139.329 10.9103 139.732 12.1499 138.948 12.7193L132.745 17.2262C132.395 17.4808 132.248 17.9322 132.382 18.3442L134.751 25.6365C135.051 26.5578 133.996 27.3239 133.212 26.7545L127.009 22.2476C126.659 21.993 126.184 21.993 125.834 22.2476L119.63 26.7545C118.847 27.3239 117.792 26.5578 118.092 25.6365L120.461 18.3442C120.595 17.9322 120.448 17.4808 120.098 17.2262L113.895 12.7193C113.111 12.1499 113.514 10.9103 114.482 10.9103H122.15C122.583 10.9103 122.967 10.6313 123.101 10.2193L125.47 2.92705Z" 
         fill="#FFE500"/>
    <path d="M162.313 2.92705C162.612 2.00574 163.916 2.00574 164.215 2.92705L166.585 10.2193C166.718 10.6313 167.102 10.9103 167.536 10.9103H175.203C176.172 10.9103 176.575 12.1499 175.791 12.7193L169.588 17.2262C169.237 17.4808 169.091 17.9322 169.225 18.3442L171.594 25.6365C171.893 26.5578 170.839 27.3239 170.055 26.7545L163.852 22.2476C163.501 21.993 163.027 21.993 162.676 22.2476L156.473 26.7545C155.689 27.3239 154.635 26.5578 154.934 25.6365L157.304 18.3442C157.438 17.9322 157.291 17.4808 156.94 17.2262L150.737 12.7193C149.954 12.1499 150.356 10.9103 151.325 10.9103H158.993C159.426 10.9103 159.81 10.6313 159.944 10.2193L162.313 2.92705Z" 
         fill="#FFE500"/>
</svg>