<svg xmlns="http://www.w3.org/2000/svg" width="25" height="30" viewBox="0 0 25 30" fill="none">
    <path d="M19.2938 21.4465L22.2422 26.8034L18.2539 25.9761L17.3084 29.6683L13.8194 23.519L12.9326 21.9661L18.0725 19.2717L19.2938 21.4465Z" fill="#FF7058"/>
    <path d="M10.7043 23.5031L6.99756 29.9999L5.87496 26.0712L1.88672 27.2526L4.99328 21.6896L6.40905 19.2717L11.3617 22.043L10.7043 23.5031Z" fill="#FF7058"/>
    <path d="M9.04131 0.400092L7.97386 1.75853C7.78301 2.00163 7.49129 2.14313 7.18216 2.14313H5.2606C4.75264 2.14313 4.3245 2.52193 4.26137 3.02627L4.08213 4.47034C4.04076 4.80269 3.83758 5.09223 3.53933 5.24389L1.78758 6.13428C1.36815 6.34763 1.15263 6.82221 1.26801 7.27865L1.66132 8.83302C1.73896 9.14143 1.66712 9.46798 1.46684 9.7147L0.225228 11.243C-0.0744706 11.6123 -0.075196 12.1406 0.223777 12.5107L1.40951 13.9765C1.60399 14.2167 1.67728 14.5338 1.60762 14.835L1.21939 16.5251C1.11344 16.9873 1.3442 17.4612 1.77379 17.6622L3.43774 18.4408C3.79186 18.6063 4.01754 18.9618 4.01754 19.3522V20.5293C4.01754 21.0851 4.46818 21.5358 5.02404 21.5358H6.99712C7.31496 21.5358 7.61393 21.686 7.80333 21.9399L8.88021 23.3826C9.18136 23.786 9.73504 23.905 10.1755 23.6605L11.436 22.9602C11.7016 22.8129 12.0202 22.7933 12.3017 22.9065L14.4388 23.7701C14.8923 23.9537 15.4126 23.7839 15.671 23.3681L16.5106 22.0176C16.6847 21.7368 16.9859 21.5597 17.316 21.5437L19.2942 21.4465C19.8305 21.4204 20.2514 20.9777 20.2514 20.4415V19.472C20.2514 19.1077 20.448 18.7717 20.7658 18.5939L22.6257 17.5519C23.0176 17.3327 23.2164 16.8799 23.1134 16.4431L22.7237 14.7878C22.6497 14.4743 22.7302 14.1449 22.9399 13.9011L24.1322 12.515C24.45 12.1457 24.4573 11.6007 24.1496 11.2234L23.1881 10.0427C22.9929 9.80324 22.9189 9.48685 22.9864 9.18497L23.4123 7.29897C23.5176 6.8331 23.281 6.35706 22.8456 6.16041L21.2245 5.42749C20.919 5.28888 20.702 5.00733 20.6468 4.67642L20.3892 3.13729C20.3094 2.65981 19.9009 2.30713 19.4168 2.29698L17.3937 2.25634C17.0584 2.24981 16.7493 2.07637 16.5679 1.79482L15.7094 0.461773C15.4482 0.0554018 14.9351 -0.107147 14.4867 0.0728176L12.5492 0.853631C12.2857 0.959578 11.989 0.949419 11.7335 0.82533L10.2735 0.116357C9.84607 -0.0904567 9.33375 0.0278264 9.04131 0.400092Z" fill="#FFD15D"/>
    <path d="M12.1322 20.038C16.6148 20.038 20.2487 16.4041 20.2487 11.9215C20.2487 7.43883 16.6148 3.80493 12.1322 3.80493C7.64953 3.80493 4.01562 7.43883 4.01562 11.9215C4.01562 16.4041 7.64953 20.038 12.1322 20.038Z" fill="#F8B64D"/>
    <path d="M8.40396 17.086L8.92789 13.7161C8.94966 13.5767 8.90104 13.4367 8.79872 13.3402L6.32711 11.0137C6.07023 10.772 6.20085 10.341 6.54844 10.2829L9.91407 9.71547C10.0519 9.69225 10.1695 9.603 10.229 9.47673L11.6905 6.38105C11.8414 6.06103 12.2942 6.05378 12.4553 6.36872L14.0032 9.38747C14.0678 9.51301 14.1904 9.59864 14.3305 9.61606L17.6975 10.0297C18.0487 10.0725 18.1975 10.4999 17.9493 10.7524L15.5467 13.1907C15.4487 13.2901 15.4059 13.4309 15.4313 13.568L16.0575 16.9235C16.1221 17.2696 15.7629 17.541 15.4472 17.3828L12.4118 15.8633C12.2863 15.8002 12.1375 15.8038 12.0141 15.8713L9.03166 17.5251C8.7218 17.6963 8.34881 17.4365 8.40396 17.086Z" fill="#FFD15D"/>
</svg>