<svg xmlns="http://www.w3.org/2000/svg" width="21" height="16" viewBox="0 0 21 16" fill="none">
  <path d="M10.0001 0.111084C7.19455 0.111084 4.94803 1.38886 3.31261 2.9097C1.68761 4.41664 0.600803 6.2222 0.0869141 7.46178C-0.0276693 7.73608 -0.0276693 8.04164 0.0869141 8.31594C0.600803 9.55553 1.68761 11.3611 3.31261 12.868C4.94803 14.3889 7.19455 15.6666 10.0001 15.6666C12.8057 15.6666 15.0522 14.3889 16.6876 12.868C18.3126 11.3576 19.3994 9.55553 19.9168 8.31594C20.0314 8.04164 20.0314 7.73608 19.9168 7.46178C19.3994 6.2222 18.3126 4.41664 16.6876 2.9097C15.0522 1.38886 12.8057 0.111084 10.0001 0.111084ZM5.00011 7.88886C5.00011 6.56278 5.52689 5.29101 6.46457 4.35333C7.40226 3.41565 8.67403 2.88886 10.0001 2.88886C11.3262 2.88886 12.598 3.41565 13.5356 4.35333C14.4733 5.29101 15.0001 6.56278 15.0001 7.88886C15.0001 9.21494 14.4733 10.4867 13.5356 11.4244C12.598 12.3621 11.3262 12.8889 10.0001 12.8889C8.67403 12.8889 7.40226 12.3621 6.46457 11.4244C5.52689 10.4867 5.00011 9.21494 5.00011 7.88886ZM10.0001 5.66664C10.0001 6.89233 9.00358 7.88886 7.77789 7.88886C7.53136 7.88886 7.29525 7.8472 7.07303 7.77428C6.88205 7.71178 6.65983 7.82983 6.66678 8.03122C6.67719 8.27081 6.71191 8.51039 6.77789 8.74997C7.25358 10.5278 9.08344 11.5833 10.8612 11.1076C12.639 10.6319 13.6946 8.80206 13.2189 7.02428C12.8334 5.58331 11.5591 4.61456 10.1425 4.55553C9.94108 4.54858 9.82303 4.76733 9.88553 4.96178C9.95844 5.184 10.0001 5.42011 10.0001 5.66664Z" fill="#959595"/>
</svg>