<svg xmlns="http://www.w3.org/2000/svg" width="20" height="16" viewBox="0 0 20 16" fill="none">
  <path d="M1.21265 0.159548C0.88766 -0.0966977 0.415793 -0.0373237 0.159548 0.287671C-0.0966977 0.612665 -0.0373237 1.08453 0.287671 1.34078L18.7873 15.8405C19.1123 16.0968 19.5842 16.0374 19.8405 15.7124C20.0967 15.3874 20.0373 14.9155 19.7123 14.6593L16.4249 12.0843C17.6624 10.8156 18.4999 9.39376 18.9217 8.3844C19.0248 8.13753 19.0248 7.86254 18.9217 7.61567C18.4561 6.50006 17.478 4.87509 16.0155 3.51886C14.5468 2.15014 12.525 1.00016 10 1.00016C7.86879 1.00016 6.09382 1.82202 4.70947 2.90013L1.21265 0.159548ZM6.97193 4.67197C7.76879 3.94386 8.8344 3.50011 10 3.50011C12.4843 3.50011 14.4999 5.5157 14.4999 8.00004C14.4999 8.77815 14.3031 9.50938 13.9562 10.1469L12.75 9.20314C13.0124 8.60003 13.0812 7.90941 12.8999 7.22505C12.5531 5.9282 11.4062 5.05634 10.1312 5.00321C9.95 4.99696 9.84375 5.19383 9.9 5.36883C9.96563 5.56883 10.0031 5.78132 10.0031 6.0032C10.0031 6.32194 9.92813 6.62193 9.79688 6.88755L6.97505 4.67509L6.97193 4.67197ZM11.6562 12.1843C11.1437 12.3875 10.5844 12.5 10 12.5C7.51567 12.5 5.50008 10.4844 5.50008 8.00004C5.50008 7.78441 5.5157 7.57504 5.54383 7.3688L2.59701 5.04696C1.88452 5.97507 1.37515 6.90005 1.07828 7.61567C0.975159 7.86254 0.975159 8.13753 1.07828 8.3844C1.5439 9.50001 2.52201 11.125 3.98448 12.4812C5.45321 13.8499 7.47504 14.9999 10 14.9999C11.4937 14.9999 12.8093 14.5968 13.9437 13.9843L11.6562 12.1843Z" fill="#959595"/>
</svg>