<svg xmlns="http://www.w3.org/2000/svg" width="30" height="30" viewBox="0 0 30 30" fill="none">
    <path d="M23.7725 3.92673L24.199 3.5H23.5957H18.75C17.851 3.5 17.125 2.77404 17.125 1.875C17.125 
    0.975962 17.851 0.25 18.75 0.25H28.125C29.024 0.25 29.75 0.975962 29.75 1.875V11.25C29.75 12.149 
    29.024 12.875 28.125 12.875C27.226 12.875 26.5 12.149 26.5 11.25V6.4043V5.80053L26.0732 6.22756L14.2783 
    18.0283C14.2783 18.0283 14.2783 18.0283 14.2783 18.0283C13.6435 18.6631 12.6123 18.6631 11.9776 18.0283C11.3428 
    17.3935 11.3428 16.3623 11.9776 15.7276L11.9776 15.7275L23.7725 3.92673ZM0.25 6.5625C0.25 4.11073 2.23573 2.125 
    4.6875 2.125H11.25C12.149 2.125 12.875 2.85096 12.875 3.75C12.875 4.64904 12.149 5.375 11.25 5.375H4.6875C4.0338 
    5.375 3.5 5.9088 3.5 6.5625V25.3125C3.5 25.9662 4.0338 26.5 4.6875 26.5H23.4375C24.0912 26.5 24.625 25.9662 24.625 
    25.3125V18.75C24.625 17.851 25.351 17.125 26.25 17.125C27.149 17.125 27.875 17.851 27.875 18.75V25.3125C27.875 
    27.7643 25.8893 29.75 23.4375 29.75H4.6875C2.23573 29.75 0.25 27.7643 0.25 25.3125V6.5625Z" 
    fill="#545454" stroke="white" stroke-width="0.5"/>
</svg>