<svg width="23" height="26" viewBox="0 0 23 26" fill="none" xmlns="http://www.w3.org/2000/svg">
<path d="M0.453009 13.0835C0.453009 11.7047 1.67966 10.5835 3.18801 10.5835H4.55551V6.8335C4.55551 3.38725 7.62281 0.583496 11.393 0.583496C15.1632 0.583496 18.2305 3.38725 18.2305 6.8335V10.5835H19.598C21.1064 10.5835 22.333 11.7047 22.333 13.0835V23.0835C22.333 24.4622 21.1064 25.5835 19.598 25.5835H3.18801C1.67966 25.5835 0.453009 24.4622 0.453009 23.0835V13.0835ZM15.4955 6.8335C15.4955 4.766 13.6549 3.0835 11.393 3.0835C9.13116 3.0835 7.29051 4.766 7.29051 6.8335V10.5835H15.4955V6.8335Z" fill="#959595"/>
</svg>
