<svg width="22" height="25" viewBox="0 0 22 25" fill="none" xmlns="http://www.w3.org/2000/svg">
<path id="icon-unlock" d="M7.03125 7.03125C7.03125 4.87305 8.7793 3.125 10.9375 3.125C12.4951 3.125 13.8379 4.0332 14.4678 5.35645C14.8389 6.1377 15.7715 6.46973 16.5479 6.09863C17.3242 5.72754 17.6611 4.79492 17.29 4.01855C16.1621 1.64551 13.7451 0 10.9375 0C7.05566 0 3.90625 3.14941 3.90625 7.03125V9.375H3.125C1.40137 9.375 0 10.7764 0 12.5V21.875C0 23.5986 1.40137 25 3.125 25H18.75C20.4736 25 21.875 23.5986 21.875 21.875V12.5C21.875 10.7764 20.4736 9.375 18.75 9.375H7.03125V7.03125Z" fill="#959595"/>
</svg>
